<?xml version="1.0" standalone="no"?>
<!DOCTYPE svg PUBLIC "-//W3C//DTD SVG 20010904//EN"
 "http://www.w3.org/TR/2001/REC-SVG-20010904/DTD/svg10.dtd">
<svg version="1.0" xmlns="http://www.w3.org/2000/svg"
 width="650.000000pt" height="150.000000pt" viewBox="0 0 650.000000 150.000000"
 preserveAspectRatio="xMidYMid meet">

<g transform="translate(0.000000,150.000000) scale(0.100000,-0.100000)"
fill="#000000" stroke="none">
<path d="M3790 1186 c-13 -39 -30 -84 -37 -101 -7 -16 -40 -117 -74 -224 -43
-132 -59 -196 -51 -199 9 -3 9 -9 1 -23 -5 -11 -14 -17 -18 -14 -9 5 -21 -17
-21 -41 0 -20 37 -17 43 4 3 9 17 49 31 87 15 39 42 120 61 180 18 61 53 166
76 234 l42 123 29 -83 c15 -46 28 -85 28 -86 0 -2 -10 7 -21 18 l-22 22 -34
-99 c-59 -171 -124 -404 -117 -416 4 -7 3 -8 -4 -4 -7 4 -12 1 -12 -8 0 -9 -1
-19 -2 -23 -2 -4 11 -9 27 -10 17 -1 41 -5 55 -8 18 -4 21 -3 11 4 -11 7 -8
10 15 14 16 2 7 2 -21 0 -50 -4 -50 -4 -52 28 -1 18 4 44 11 58 14 26 31 70
81 214 15 42 29 77 30 77 7 0 96 -265 105 -311 6 -29 15 -56 20 -59 17 -11 0
-42 -19 -34 -9 3 -27 8 -41 10 -14 2 -18 2 -10 -2 8 -3 36 -15 62 -26 58 -26
80 -20 69 19 -5 15 -13 39 -19 53 -5 14 -17 50 -27 80 -9 30 -23 69 -30 85
-20 47 -26 83 -15 90 5 3 7 0 5 -7 -3 -8 2 -22 11 -33 8 -11 13 -15 10 -10 -2
6 -1 17 5 25 7 13 9 12 9 -2 0 -9 6 -29 14 -45 8 -15 27 -58 41 -96 15 -37 30
-69 34 -71 10 -7 13 115 3 127 -10 12 -59 151 -66 185 -1 9 -8 29 -14 43 -6
15 -16 46 -22 70 -7 24 -16 49 -20 54 -4 6 -20 49 -35 97 -28 92 -35 102 -76
104 -23 1 -28 -6 -49 -70z m144 -252 c3 -8 2 -12 -4 -9 -6 3 -10 10 -10 16 0
14 7 11 14 -7z"/>
<path d="M5169 1250 c-14 -9 -16 -16 -25 -118 -6 -68 -6 -72 12 -66 19 7 19 7
0 -14 -11 -13 -16 -30 -13 -44 3 -13 2 -99 -2 -192 l-6 -168 -34 48 c-46 64
-225 298 -268 349 -19 22 -37 45 -41 50 -91 126 -107 145 -129 145 l-23 0 0
-240 c0 -207 2 -240 15 -240 8 0 16 1 17 3 1 1 4 92 7 201 l6 200 27 -40 c15
-21 43 -61 63 -89 83 -116 135 -195 128 -195 -4 0 -20 21 -35 45 -19 31 -32
43 -43 39 -8 -3 -15 -1 -15 6 0 6 4 8 10 5 6 -3 7 1 3 10 -4 12 -8 13 -13 5
-5 -8 -12 1 -19 23 -7 20 -25 50 -40 66 -16 17 -27 32 -24 34 2 2 -4 10 -14
18 -15 12 -16 12 -8 -1 5 -8 8 -23 6 -34 -1 -11 2 -16 8 -11 7 4 10 1 9 -7 -2
-7 3 -12 10 -10 6 1 11 -2 10 -6 -4 -14 62 -112 75 -112 7 -1 22 -22 35 -48
32 -66 84 -128 103 -124 21 4 54 -44 37 -54 -6 -4 -8 -3 -5 3 3 5 0 10 -8 10
-11 0 -12 -4 -4 -14 6 -7 16 -10 22 -6 6 4 8 0 4 -10 -3 -9 -2 -19 4 -22 5 -4
9 -3 8 2 -6 37 1 30 91 -88 30 -40 65 -84 78 -98 l23 -26 -7 383 -7 382 32 0
31 0 1 -232 c1 -199 12 -429 17 -361 1 12 6 23 11 25 12 4 22 590 11 608 -10
16 -109 23 -131 10z m21 -702 c0 -26 -4 -38 -8 -30 -8 12 -4 72 4 72 2 0 4
-19 4 -42z"/>
<path d="M5792 1228 c-8 -24 -11 -178 -10 -538 0 -278 4 -476 7 -440 4 36 7
89 6 117 -1 29 2 53 5 53 4 0 5 20 2 45 -5 49 3 59 18 20 6 -16 6 -34 -1 -51
-8 -23 -8 -25 5 -15 18 15 33 158 18 173 -7 7 -12 0 -17 -21 -4 -17 -11 -31
-16 -31 -11 0 -12 140 -1 155 10 14 56 20 48 6 -4 -6 -2 -11 3 -11 18 0 12 18
-11 35 -16 12 -19 19 -10 22 6 3 12 21 12 43 0 21 6 43 15 50 21 17 21 112 1
104 -8 -3 -17 -13 -19 -22 -3 -10 -5 49 -6 129 -1 120 2 148 14 152 8 4 107 6
220 6 l205 0 0 -34 0 -35 -190 0 -189 0 -3 -192 c-2 -106 -5 -199 -8 -207 -4
-11 10 -13 68 -12 59 2 72 0 72 -13 0 -9 6 -16 14 -16 8 0 21 -3 30 -6 9 -3
16 -1 16 5 0 6 -10 12 -22 13 -13 1 11 4 52 7 69 6 76 4 82 -14 6 -19 6 -19 7
2 2 38 21 37 21 -1 l0 -36 -107 0 c-60 0 -115 -5 -123 -10 -13 -8 -12 -10 5
-11 11 -1 2 -5 -20 -9 -25 -4 19 -8 118 -9 l157 -1 0 80 0 80 -154 0 c-131 0
-155 2 -160 16 -3 9 -6 78 -6 155 l0 139 189 0 c147 0 190 3 194 13 5 13 -1
128 -7 134 -4 4 -380 3 -433 -1 -24 -2 -40 1 -37 5 3 5 -5 9 -18 9 -18 0 -27
-8 -36 -32z m72 -344 c3 -8 2 -12 -4 -9 -6 3 -10 10 -10 16 0 14 7 11 14 -7z
m241 -234 c4 -6 -7 -10 -27 -10 -25 0 -29 3 -18 10 19 13 37 13 45 0z"/>
<path d="M2780 1231 c-75 -24 -116 -46 -176 -95 -94 -76 -186 -216 -203 -310
-28 -151 -5 -281 70 -396 40 -63 147 -176 156 -166 3 2 -14 21 -36 41 -22 21
-38 41 -35 46 3 5 0 9 -6 9 -6 0 -8 5 -5 11 5 7 14 4 28 -8 12 -10 6 1 -12 25
-18 23 -38 39 -43 36 -7 -4 -8 -2 -4 4 8 13 -11 55 -22 48 -4 -2 -7 6 -8 17
-1 12 -8 43 -17 70 -8 26 -13 47 -11 47 2 0 15 -24 28 -53 14 -28 25 -44 25
-34 1 15 4 14 25 -7 38 -42 82 -25 50 19 -8 10 -14 34 -14 52 0 19 -7 48 -16
65 -23 44 -14 146 19 219 65 147 236 253 380 237 l43 -5 17 58 c27 93 31 89
-80 88 -65 0 -116 -6 -153 -18z m190 -32 c0 -7 -11 -8 -29 -4 -38 8 -143 -12
-201 -39 -73 -34 -121 -67 -114 -78 5 -7 2 -8 -6 -3 -8 5 -11 3 -8 -6 3 -8 1
-23 -5 -34 -6 -11 11 -1 36 23 71 65 154 97 270 106 67 5 59 -10 -10 -18 -134
-15 -241 -73 -315 -171 -49 -64 -75 -135 -87 -232 -8 -72 -9 -74 -11 -28 -1
28 -4 42 -7 33 -7 -30 -23 -20 -25 15 -2 49 2 81 13 92 6 5 9 4 9 -5 0 -7 2
-11 5 -8 3 3 1 17 -6 31 -10 22 -7 33 22 84 49 87 131 164 219 206 85 40 100
44 188 46 38 0 62 -3 62 -10z m-490 -539 c0 -5 -2 -10 -4 -10 -3 0 -8 5 -11
10 -3 6 -1 10 4 10 6 0 11 -4 11 -10z m61 -273 c-1 -12 -15 -9 -19 4 -3 6 1
10 8 8 6 -3 11 -8 11 -12z"/>
<path d="M2565 1027 c-10 -18 -20 -43 -21 -57 -3 -24 -2 -24 25 9 24 30 33 62
20 75 -2 3 -13 -10 -24 -27z m5 -32 c-7 -9 -15 -13 -17 -11 -7 7 7 26 19 26 6
0 6 -6 -2 -15z"/>
<path d="M505 1231 c-9 -15 -76 -201 -91 -256 -8 -27 -19 -59 -24 -70 -27 -57
-139 -412 -134 -425 4 -12 9 -9 19 10 19 33 19 22 0 -30 -15 -43 -19 -68 -10
-58 3 3 24 59 46 124 57 169 90 256 96 250 2 -2 0 -14 -7 -25 -7 -13 -7 -21
-1 -21 13 0 27 26 36 68 5 26 4 32 -10 32 -11 0 -15 5 -12 14 3 8 31 93 62
190 31 96 60 178 65 181 6 4 10 10 10 16 0 12 -37 12 -45 0z"/>
<path d="M1496 1225 c-18 -14 -14 -15 46 -15 102 0 186 -30 253 -92 55 -50
105 -129 105 -165 0 -10 -13 9 -29 42 -32 67 -102 142 -122 130 -8 -5 -10 -4
-5 3 4 7 4 12 -1 13 -4 0 -23 2 -42 4 l-33 3 42 -24 c23 -13 47 -21 53 -17 6
3 7 1 3 -5 -4 -7 7 -20 28 -33 20 -12 36 -26 36 -31 0 -6 -7 -4 -17 3 -15 13
-15 12 -4 -11 9 -17 1 -12 -27 17 -50 54 -118 83 -209 90 l-72 6 -3 -83 c-2
-46 -7 -85 -13 -87 -6 -2 -9 21 -8 59 1 35 0 57 -3 50 -3 -6 -10 -10 -15 -6
-5 3 -9 -4 -9 -16 0 -14 4 -19 13 -14 10 6 10 4 0 -7 -7 -7 -13 -26 -13 -43 0
-16 -2 -27 -5 -24 -3 3 -6 35 -7 71 -1 56 -3 65 -19 64 -23 -2 -27 -20 -27
-127 0 -49 -2 -93 -4 -97 -2 -4 -1 -88 2 -186 3 -97 2 -177 -1 -177 -3 0 -6
-7 -6 -15 0 -8 3 -13 5 -10 3 3 11 0 19 -6 7 -6 14 -8 15 -3 0 5 4 -11 8 -36
6 -38 13 154 12 310 -1 33 2 28 14 -27 2 -13 9 -23 14 -23 6 0 10 48 10 119 0
80 4 122 12 127 8 5 10 -41 5 -189 l-7 -197 56 0 c58 0 142 17 159 31 13 12
28 11 20 -1 -8 -14 28 -13 42 1 14 14 5 41 -11 32 -6 -3 -2 3 8 15 11 12 21
20 24 17 3 -2 14 1 26 7 20 10 20 10 5 -8 -19 -22 -32 -44 -26 -44 5 0 67 87
67 95 0 3 -6 3 -12 0 -7 -4 -2 2 12 13 30 25 34 23 20 -14 -17 -43 -56 -90
-109 -132 -38 -30 -45 -40 -35 -50 17 -15 54 -16 54 0 0 6 22 32 49 58 27 25
59 66 71 91 13 24 27 47 32 50 25 16 34 221 11 238 -4 3 -24 37 -43 74 -19 38
-50 81 -69 95 -18 15 -40 33 -47 39 -18 19 -64 34 -76 27 -6 -4 -8 -2 -5 3 18
29 -182 45 -217 18z m148 -137 c24 -8 60 -31 87 -58 39 -38 48 -54 59 -107 13
-64 10 -88 -23 -177 -18 -49 -74 -92 -130 -101 -23 -4 -49 -9 -58 -10 -14 -3
-18 9 -23 58 -7 67 -8 86 -6 132 1 17 1 32 1 35 -8 26 -9 190 -1 185 6 -3 10
-1 10 4 0 6 -4 11 -10 11 -5 0 -10 9 -10 20 0 24 39 27 104 8z m190 -383 c3
-8 1 -15 -4 -15 -6 0 -10 7 -10 15 0 8 2 15 4 15 2 0 6 -7 10 -15z m-234 -105
c0 -5 -10 -10 -22 -9 -22 0 -22 1 -3 9 11 5 21 9 23 9 1 1 2 -3 2 -9z m-170
-91 c0 -6 -4 -7 -10 -4 -5 3 -10 11 -10 16 0 6 5 7 10 4 6 -3 10 -11 10 -16z"/>
<path d="M550 1196 c0 -17 136 -438 156 -483 8 -17 14 -35 14 -39 0 -25 64
-184 74 -183 29 3 36 -5 57 -61 12 -33 24 -58 26 -56 9 9 -141 445 -151 439
-5 -4 -7 1 -3 9 3 9 3 19 -1 23 -4 4 -7 10 -8 13 0 4 -6 21 -13 37 -31 78 -81
215 -97 263 -12 38 -21 52 -35 52 -11 0 -19 -6 -19 -14z m250 -687 c0 -6 -4
-7 -10 -4 -5 3 -10 11 -10 16 0 6 5 7 10 4 6 -3 10 -11 10 -16z"/>
<path d="M1400 1164 c0 -27 4 -43 10 -39 6 3 10 24 10 46 0 21 -4 39 -10 39
-5 0 -10 -21 -10 -46z"/>
<path d="M5211 1088 c1 -57 5 -134 8 -173 7 -67 8 -69 19 -41 8 19 12 78 11
173 -1 134 -2 143 -20 143 -18 0 -19 -8 -18 -102z"/>
<path d="M5850 1135 c0 -37 4 -55 13 -55 8 0 8 -3 1 -8 -13 -8 -6 -94 7 -86 5
3 9 33 9 67 0 116 -16 107 201 107 161 0 189 2 189 15 0 12 -17 15 -89 15 -50
0 -93 -4 -96 -10 -3 -5 -12 -10 -18 -10 -7 0 -6 4 3 10 10 7 -23 10 -102 10
l-118 0 0 -55z"/>
<path d="M3792 1009 c-54 -158 -64 -200 -38 -164 22 33 88 244 80 257 -4 7 2
4 14 -6 30 -26 34 -18 14 28 l-18 39 -52 -154z"/>
<path d="M561 1043 c-1 -6 4 -15 9 -18 6 -4 9 -12 8 -18 -3 -16 16 -85 64
-235 22 -68 37 -126 34 -129 -3 -3 -8 0 -11 8 -14 40 -105 325 -105 331 0 4
-5 19 -11 35 l-11 28 -10 -25 c-5 -14 -37 -113 -70 -220 -33 -107 -65 -205
-70 -217 -10 -21 -9 -37 8 -77 6 -16 4 -18 -10 -13 -9 4 -14 3 -11 -2 3 -5 -3
-12 -12 -14 -13 -3 -13 -5 -3 -6 8 0 33 8 55 19 22 11 33 19 25 19 -29 -2 -40
1 -40 12 0 5 5 7 12 3 15 -9 60 -13 73 -6 5 3 20 7 33 8 40 5 19 -20 -26 -30
-23 -5 -42 -13 -42 -18 0 -5 -5 -6 -12 -2 -6 4 -8 3 -4 -4 4 -7 14 -7 33 3 14
8 44 17 65 20 32 6 37 9 27 21 -9 12 -6 14 20 14 18 0 30 -4 27 -9 -3 -4 7 -6
22 -4 21 2 23 1 8 -5 -15 -7 -12 -11 22 -26 22 -10 46 -16 54 -14 7 3 -4 10
-25 17 -20 7 -35 17 -32 21 13 21 -41 32 -137 28 -54 -3 -98 -4 -98 -3 0 2 6
18 14 36 25 62 29 82 15 74 -9 -6 -10 -3 -5 11 4 10 14 39 22 64 9 25 21 59
29 75 7 17 19 47 26 68 7 20 16 37 19 37 6 0 80 -225 87 -264 2 -10 10 -24 19
-30 8 -7 14 -18 12 -26 -3 -16 34 -15 40 1 2 5 8 7 12 4 10 -6 7 44 -5 87 -4
16 -11 25 -16 22 -5 -3 -6 1 -4 8 3 7 -15 72 -41 143 -25 72 -47 137 -48 146
-3 21 -35 68 -35 52z m-124 -435 c-3 -8 -6 -5 -6 6 -1 11 2 17 5 13 3 -3 4
-12 1 -19z"/>
<path d="M4703 1019 c3 -9 2 -20 -3 -25 -10 -12 0 -118 11 -107 13 13 13 107
0 128 -8 13 -11 14 -8 4z"/>
<path d="M485 1009 c-43 -118 -53 -155 -46 -162 4 -4 13 5 19 20 17 42 42 146
37 151 -2 3 -7 -1 -10 -9z"/>
<path d="M4740 809 c0 -157 8 -215 25 -197 3 3 6 51 7 107 1 56 5 104 10 107
4 3 8 -2 8 -10 0 -8 6 -21 13 -28 7 -7 21 -26 31 -43 43 -68 201 -273 208
-269 4 2 10 -1 13 -7 5 -7 12 -2 19 13 10 19 9 28 -3 48 -9 14 -18 27 -21 30
-3 3 -59 79 -125 170 -65 91 -133 185 -152 209 l-33 44 0 -174z"/>
<path d="M3718 775 c-10 -23 -12 -35 -4 -35 6 0 4 -4 -4 -10 -8 -5 -11 -12 -7
-16 10 -11 17 -1 32 50 17 54 6 61 -17 11z"/>
<path d="M4955 720 c4 -6 11 -8 16 -5 14 9 11 15 -7 15 -8 0 -12 -5 -9 -10z"/>
<path d="M5998 693 c7 -3 16 -2 19 1 4 3 -2 6 -13 5 -11 0 -14 -3 -6 -6z"/>
<path d="M3680 665 c-6 -8 -9 -18 -6 -24 3 -5 0 -12 -6 -15 -10 -4 -10 -8 -2
-11 7 -3 10 -15 7 -25 -3 -11 -9 -17 -14 -15 -4 3 -13 -4 -19 -15 -6 -12 -7
-20 -1 -20 5 0 12 6 14 13 4 8 6 7 7 -3 1 -8 10 9 21 39 10 29 16 57 13 62 -3
5 0 9 5 9 6 0 11 5 11 10 0 15 -16 12 -30 -5z"/>
<path d="M5908 663 c6 -2 18 -2 25 0 6 3 1 5 -13 5 -14 0 -19 -2 -12 -5z"/>
<path d="M4751 544 c-2 -63 6 -97 20 -88 5 3 6 11 2 17 -4 7 -6 38 -5 70 2 31
-1 57 -6 57 -5 0 -10 -25 -11 -56z"/>
<path d="M5917 583 c-4 -3 -6 -36 -5 -72 l1 -66 7 70 c7 76 7 78 -3 68z"/>
<path d="M665 550 c-3 -5 1 -10 9 -10 9 0 16 5 16 10 0 6 -4 10 -9 10 -6 0
-13 -4 -16 -10z"/>
<path d="M3597 546 c-4 -10 -1 -13 9 -9 15 6 19 23 5 23 -5 0 -11 -7 -14 -14z"/>
<path d="M4620 370 c0 -101 2 -181 5 -179 7 7 8 350 1 357 -3 3 -6 -77 -6
-178z"/>
<path d="M3858 533 c12 -2 32 -2 45 0 12 2 2 4 -23 4 -25 0 -35 -2 -22 -4z"/>
<path d="M1645 521 l-30 -7 36 -5 c27 -3 35 -1 32 8 -3 7 -6 12 -7 12 0 -1
-14 -4 -31 -8z"/>
<path d="M1800 516 c0 -2 8 -10 18 -17 15 -13 16 -12 3 4 -13 16 -21 21 -21
13z"/>
<path d="M3661 496 c-8 -10 -8 -16 1 -24 9 -7 26 -3 58 14 35 18 39 23 20 21
-14 -1 -28 -6 -32 -11 -4 -6 -12 -5 -21 2 -11 10 -17 9 -26 -2z"/>
<path d="M4682 485 c0 -16 2 -22 5 -12 2 9 2 23 0 30 -3 6 -5 -1 -5 -18z"/>
<path d="M2600 486 c0 -9 -4 -14 -10 -11 -12 8 -13 -5 -1 -23 6 -10 10 -7 15
13 4 15 5 30 1 33 -3 3 -5 -2 -5 -12z"/>
<path d="M3733 469 c-18 -12 -33 -26 -33 -32 0 -9 2 -9 8 -1 4 6 23 21 42 33
19 11 31 21 25 21 -5 0 -25 -10 -42 -21z"/>
<path d="M3920 480 c0 -6 7 -10 15 -10 8 0 15 2 15 4 0 2 -7 6 -15 10 -8 3
-15 1 -15 -4z"/>
<path d="M630 476 c0 -3 9 -10 20 -16 11 -6 20 -8 20 -6 0 3 -9 10 -20 16 -11
6 -20 8 -20 6z"/>
<path d="M1830 474 c0 -7 9 -22 21 -35 16 -19 18 -20 10 -4 -17 34 -31 51 -31
39z"/>
<path d="M1390 460 c0 -5 5 -10 10 -10 6 0 10 5 10 10 0 6 -4 10 -10 10 -5 0
-10 -4 -10 -10z"/>
<path d="M1650 461 c0 -12 49 -91 57 -91 3 0 -43 85 -54 99 -2 2 -3 -1 -3 -8z"/>
<path d="M5123 435 c0 -8 4 -12 9 -9 5 3 6 10 3 15 -9 13 -12 11 -12 -6z"/>
<path d="M1871 404 c8 -20 83 -143 86 -140 4 4 -65 128 -79 141 -7 7 -9 6 -7
-1z"/>
<path d="M2767 366 c-7 -17 14 -38 29 -28 7 5 5 13 -6 25 -15 15 -18 16 -23 3z"/>
<path d="M2670 366 c0 -2 7 -7 16 -10 8 -3 12 -2 9 4 -6 10 -25 14 -25 6z"/>
<path d="M6038 353 c50 -2 134 -2 185 0 50 1 9 3 -93 3 -102 0 -143 -2 -92 -3z"/>
<path d="M2717 339 c7 -7 15 -10 18 -7 3 3 -2 9 -12 12 -14 6 -15 5 -6 -5z"/>
<path d="M4048 295 c9 -26 18 -42 20 -37 3 9 -26 82 -33 82 -2 0 4 -20 13 -45z"/>
<path d="M5938 298 c17 -8 26 -8 34 0 9 9 4 12 -22 11 -33 0 -34 -1 -12 -11z"/>
<path d="M6130 301 c0 -9 127 -7 137 2 3 4 -26 7 -65 7 -40 0 -72 -4 -72 -9z"/>
<path d="M6046 215 c-11 -8 -15 -15 -9 -15 6 0 16 7 23 15 16 19 11 19 -14 0z"/>
</g>
</svg>
